<?xml version="1.0" encoding="UTF-8"?>
<!DOCTYPE svg  PUBLIC '-//W3C//DTD SVG 1.1//EN'  'http://www.w3.org/Graphics/SVG/1.1/DTD/svg11.dtd'>
<svg width="1024pt" height="256pt" version="1.1" viewBox="0 0 1024 256" xmlns="http://www.w3.org/2000/svg">
<path d="m898.06 35.03c0.01-4.49 3.54-8.68 8.03-9.24 4.26-0.75 8.81 1.56 10.75 5.41 0.84 1.79 0.83 3.82 0.91 5.75-0.07 21.7-0.08 43.4 0 65.09-0.06 2.67-0.08 5.63-1.9 7.78-2.71 3.63-7.88 4.93-12.06 3.3-2.62-1.16-4.13-3.75-5.78-5.94-2.83 2.5-5.84 5.1-9.61 5.98-7.11 1.54-14.89 0.53-21.04-3.48-8.04-4.68-12.98-13.57-14.12-22.65-0.7-7.33-0.46-15.1 3.06-21.75 5.59-11.89 20.2-19.57 33.02-15.45 3.45 1.21 6.07 3.87 8.66 6.34 0.13-7.04-0.18-14.1 0.08-21.14m-17.48 31.58c-3.09 1.45-5.58 4.12-6.66 7.37-2.31 6.49-1.83 14.7 3.41 19.67 4.4 4.79 12.76 4.53 17.1-0.21 3.29-3.21 4.16-8.03 4.1-12.46-0.05-4.35-1-9.11-4.38-12.15-3.49-3.46-9.16-4.26-13.57-2.22z" fill="#ff6b6b"/>
<path d="m28.33 36.07c-0.19-4.72 4.01-8.99 8.72-8.89 5.54-0.39 9.56 4.32 11.98 8.73 5.52 10.14 11.33 20.11 16.93 30.19 2.79 4.79 5.45 9.66 8.56 14.24 8-13.97 15.97-27.96 23.89-41.98 2.08-3.68 4.15-7.74 7.97-9.91 4.47-2.66 11.25-1.15 13.39 3.81 0.94 3.49 0.6 7.16 0.64 10.74-0.06 17.34-0.04 34.67-0.01 52-0.06 3.91 0.37 7.9-0.55 11.74-1.76 5.21-8.29 7.96-13.32 5.88-2.92-1.17-5.63-3.59-6.21-6.81-0.45-2.57-0.36-5.2-0.37-7.81 0.09-8.7 0.1-17.41-0.07-26.11-4.39 9.43-9.67 18.4-14.39 27.67-1.84 3.29-3.47 7.16-6.98 9-4.02 1.78-9.53 0.81-11.9-3.14-3.23-4.93-5.54-10.39-8.44-15.51-3.09-5.42-5.41-11.29-9.11-16.35-0.66 7.46-0.33 14.96-0.34 22.43-0.04 3.46 0.31 6.97-0.45 10.38-1.3 4.28-5.78 7.35-10.27 6.95-4.65-0.07-9.15-3.83-9.57-8.54-0.33-3.25-0.14-6.53-0.14-9.79 0.08-19.64-0.04-39.28 0.04-58.92z" fill="#1a535c"/>
<path d="m632.39 31.39c2.34-2.81 6.05-4.07 9.64-4.01 11.34-0.02 22.68 0.11 34.02-0.03 3.24 0.04 6.91-0.25 9.57 2 4.47 3.21 4.49 10.96-0.18 14-2.38 1.85-5.56 1.62-8.39 1.7-8.95-0.05-17.9-0.11-26.85 0.03 0.11 5.53 0.11 11.07 0.11 16.61 5.58 0.06 11.16-0.06 16.74-0.02 2.54 0.08 5.39 0.12 7.4 1.94 3.67 3.03 4.06 9.18 0.64 12.55-2.02 2.28-5.24 2.47-8.07 2.48-5.61 0-11.21-0.17-16.8 0.13 0.11 5.49 0.11 10.97-0.01 16.46 9.6 0.38 19.2 0.1 28.8 0.13 2.68 0.06 5.59 0.16 7.83 1.83 4.32 3.17 4.39 10.51 0.21 13.82-2.76 2.38-6.64 2.19-10.04 2.32-10.33-0.04-20.66-0.05-30.99-0.01-3.18-0.08-6.46 0.04-9.5-1-3.98-1.71-6.48-6.02-6.24-10.32 0-20.67 0.06-41.35-0.03-62.03 0.07-2.93 0.1-6.23 2.14-8.58z" fill="#ff6b6b"/>
<path d="m548.97 40.08c0.74-4.22 4.82-7.39 9.04-7.47 4.54-0.35 9.22 2.89 10.01 7.46 0.51 3.2 0.29 6.45 0.25 9.67 3.74-0.04 7.66-0.68 11.27 0.62 5.2 2.74 4.6 12.16-1.23 13.83-3.31 0.74-6.73 0.49-10.09 0.63 0.17 8.08 0.1 16.17 0.01 24.25 0.11 2.32 0.33 4.66 0.9 6.91 2.86 0.31 5.75 0.15 8.62 0.54 2.03-0.04 3.73 1.48 4.53 3.26 1.66 3.67 0.58 8.42-2.64 10.89-2.94 2.49-7 2.66-10.65 2.8-5.04 0.1-10.7-0.26-14.52-3.96-4.42-4.22-5.65-10.63-5.76-16.5-0.1-9.3 0.02-18.61-0.02-27.92-2.15-0.37-4.36-0.56-6.39-1.38-5.18-2.35-5.09-11.23 0.12-13.5 2.03-0.61 4.19-0.52 6.3-0.63-0.04-3.17-0.25-6.36 0.25-9.5z" fill="#1a535c"/>
<path d="m151.02 52.06c13.41-7.18 31.4-2.52 40.15 9.77 4.15 5.4 5.89 12.45 5.04 19.18-0.28 2.52-1.67 5-3.97 6.2-2.22 1.12-4.79 1.11-7.23 1.21-10.72 0.05-21.45-0.23-32.17-0.01 1.89 2.93 3.78 6.16 7.05 7.73 5.1 2.54 11.2 1.95 16.42 0.09 3.2-0.98 6.86-2.57 10.07-0.76 3.23 1.95 3.58 6.7 1.8 9.76-2.62 4.33-7.63 6.48-12.41 7.43-8.83 1.66-18.26 0.81-26.42-3.08-9.88-4.82-16.68-15.45-16.39-26.51-1.1-12.77 6.45-25.64 18.06-31.01m6.2 16.17c-2.22 1.6-2.88 4.4-3.79 6.82 7.94 0.36 15.91 0.56 23.84-0.15-1.11-2.71-2.17-5.76-4.84-7.33-4.55-2.8-10.93-2.56-15.21 0.66z" fill="#1a535c"/>
<path d="m211.05 52.05c3.6-4.2 11.04-3.93 14.36 0.48 2.41 2.52 1.97 6.24 2 9.43 2.71-5.79 7.58-10.84 13.94-12.39 6.36-1.3 13.57-0.91 18.91 3.15 6.37 4.61 9.02 12.68 9.79 20.21 0.61 8.34 0.06 16.71 0.31 25.07-0.08 4.06 0.49 8.7-2.22 12.1-2.71 3.49-7.82 4.07-11.77 2.67-3.5-1.37-5.54-5.11-5.61-8.75-0.37-8.55 0.24-17.12-0.17-25.67-0.29-3.62-0.94-7.63-3.69-10.26-3.48-3.03-8.93-3.19-12.89-1.02-3.99 2.49-6.14 7.26-6.27 11.87-0.26 8.02 0.1 16.04-0.02 24.06-0.09 2.13-0.22 4.4-1.43 6.24-3.48 5.68-13.11 5.69-16.58-0.01-1.55-2.42-1.38-5.43-1.46-8.18 0.12-13.7 0.06-27.4 0.01-41.1-0.1-2.87 0.58-5.9 2.79-7.9z" fill="#1a535c"/>
<path d="m284.61 63.42c1.7-7.3 8.48-12.5 15.59-14.02 9.24-1.89 20-0.53 26.82 6.53 3.09 2.89 4.16 7.63 2.51 11.54-2.33 3.21-6.88 3.42-10.42 2.57-3.01-1.07-4.93-3.89-7.7-5.38-2-0.58-4.14-0.53-6.21-0.55-0.74 1.73-1.99 3.64-1.18 5.56 2.37 2.21 5.69 2.79 8.68 3.7 5.11 1.32 10.22 3.21 14.31 6.65 6.46 5.22 6.86 15.23 3.32 22.23-4.45 8.28-14.44 11.37-23.3 11.2-8.08 0.45-16.3-2.77-21.66-8.86-2.73-3.07-4.19-7.71-2.37-11.59 1.78-3.62 6.68-4.73 10.16-3.09 3.51 1.99 5.91 5.54 9.62 7.22 2.45 0.87 5.19 0.93 7.71 0.33 2.53-0.71 3.5-4.62 1.2-6.15-2.96-2.26-6.78-2.77-10.23-3.91-5.82-1.65-11.53-4.83-14.85-10.04-2.68-4.07-2.84-9.27-2-13.94z" fill="#1a535c"/>
<path d="m348.72 49.78c3.97-1.69 9.16-0.93 11.88 2.63 1.92 2.01 2.12 4.91 2.14 7.54 0.04 7.69-0.2 15.39 0 23.08 0.13 4.04 0.66 8.52 3.73 11.48 2.59 2.8 6.82 3.02 10.33 2.22 5.25-1.33 8.63-6.7 8.81-11.93 0.33-8.28-0.1-16.57 0.06-24.85 0.05-2.76 0.42-5.77 2.45-7.84 3.93-4.33 11.63-4.1 15.22 0.55 2.1 2.61 1.95 6.15 2.03 9.31-0.15 13.7 0.01 27.39-0.06 41.09 0.12 4.15-2.21 8.77-6.39 9.99-3.58 0.72-8.1 0.73-10.56-2.44-2.21-2.26-2.51-5.52-2.86-8.49-2.1 3.58-4.74 6.99-8.49 8.93-4.95 3.04-11.05 3.25-16.63 2.3-7.02-1.41-12.45-7.26-14.78-13.84-3.07-8.49-2.2-17.66-2.28-26.51 0.1-5.27-0.29-10.54 0.09-15.8 0.15-3.24 2.52-5.98 5.31-7.42z" fill="#1a535c"/>
<path d="m426.51 49.61c3.55-1.08 7.9-0.57 10.42 2.4 2.56 2.31 2.45 5.97 2.74 9.12 2.51-4.47 5.89-8.7 10.73-10.76 3.94-1.82 9.09-2.23 12.73 0.47 2.76 2.07 3.19 5.88 2.78 9.06-0.35 2.99-2.95 5.17-5.59 6.23-4.23 1.31-8.9 0.43-13.01 2.24-3.8 1.77-7.35 5.18-7.49 9.61-0.65 9.47 0.52 19.02-0.45 28.47-1.38 7.39-12.15 9.43-16.76 3.88-2.38-2.46-2.35-6.08-2.37-9.27 0.16-14.02 0.01-28.05 0.06-42.06-0.22-4.07 2.56-7.83 6.21-9.39z" fill="#1a535c"/>
<path d="m480.23 58.23c5.59-5.32 12.95-8.99 20.71-9.48 11.78-0.92 23.86 5.31 29.84 15.52 3.07 4.95 4.1 11 3.43 16.74-0.28 2.53-1.67 5-3.97 6.2-2.23 1.13-4.8 1.11-7.22 1.21-10.73 0.05-21.46-0.22-32.18-0.01 1.89 2.93 3.78 6.15 7.05 7.73 5.1 2.53 11.2 1.96 16.42 0.08 2.98-0.89 6.23-2.34 9.34-1.1 3.83 1.53 4.47 6.86 2.53 10.1-2.63 4.34-7.63 6.49-12.41 7.44-8.84 1.67-18.26 0.81-26.42-3.09-9.88-4.81-16.69-15.44-16.39-26.51-0.77-9.14 2.88-18.34 9.27-24.83m15.55 9.58c-2.57 1.56-3.4 4.59-4.35 7.23 7.94 0.37 15.91 0.57 23.84-0.14-1.11-2.72-2.17-5.77-4.84-7.34-4.37-2.69-10.37-2.53-14.65 0.25z" fill="#1a535c"/>
<path d="m702.32 58.07c-0.1-5.04 4.68-9.44 9.68-9.12 5.01-0.33 9.79 4.06 9.68 9.13 0.2 5.63-0.05 11.28 0.01 16.92 0.05 4.86-0.31 9.82 0.92 14.58 1.08 4.19 4.89 7.73 9.39 7.54 6.8 0.59 12.5-5.79 12.63-12.31 0.3-8.28-0.08-16.58 0.05-24.86-0.48-4.64 2.28-9.28 6.89-10.51 4.02-1.39 8.74 0.41 11.19 3.8 1.73 2.55 1.49 5.79 1.59 8.73-0.14 13.69 0.01 27.39-0.05 41.08 0.15 3.93-1.9 8.05-5.56 9.72-3.96 1.32-9.22 1.03-11.81-2.69-2.22-2.47-2.21-5.93-2.26-9.05-2.3 6.48-8.38 10.98-14.95 12.42-5.32 0.76-11.15 0.59-15.85-2.3-5.05-2.97-8.41-8.23-10.03-13.77-2.07-7.27-1.48-14.91-1.54-22.38 0.09-5.64-0.19-11.29 0.02-16.93z" fill="#ff6b6b"/>
<path d="m780.04 53.08c1.93-2.26 4.73-4.1 7.82-3.93 3.32 0.11 6.73 1.77 8.44 4.7 1.39 2.42 1.17 5.3 1.2 7.99 2.28-5.41 6.82-9.83 12.36-11.82 3.58-1.19 7.44-1.23 11.17-0.91 7.51 0.72 13.97 6.41 16.53 13.38 3.53 8.38 2.65 17.64 2.73 26.51-0.1 5.32 0.28 10.65-0.14 15.96-0.3 4.62-4.34 8.81-9.12 8.51-5.08 0.67-9.86-3.48-10.18-8.51-0.53-8.85 0.2-17.74-0.25-26.6-0.28-3.2-0.7-6.63-2.65-9.29-3.12-3.76-8.95-4.37-13.2-2.32-3.94 1.9-6.46 6.02-6.82 10.32-0.75 9.51 0.26 19.08-0.39 28.59-0.44 5.04-5.7 8.49-10.54 7.78-4.93-0.07-8.98-4.64-8.69-9.51-0.09-13.99 0.07-27.98-0.07-41.97 0.12-2.99-0.22-6.41 1.8-8.88z" fill="#ff6b6b"/>
<path d="m955.4 49.57c9.14-2.24 19.13-0.18 26.79 5.23 7.83 5.43 13.45 14.44 13.79 24.08 0.18 4.26 0.06 8.64-1.32 12.73-4.3 13.16-17.88 22.5-31.66 22.2-15.05 0.36-29.96-10.86-32.6-25.9-0.9-6.75-0.79-13.99 2.32-20.21 4.21-9.13 13.02-15.72 22.68-18.13m3.01 16.93c-10.68 4.3-11.9 20.49-3.43 27.54 4.61 3.96 12.2 3.77 16.58-0.48 5.14-4.73 6.12-12.67 3.86-19.05-2.46-6.54-10.33-10.75-17.01-8.01z" fill="#ff6b6b"/>
<path d="m926.34 132.36c6.19-8.79 20.18-9.85 28.06-2.81 11.38 9.96 22.77 19.9 34.14 29.85 2.67 2.39 5.69 4.32 8.38 6.69 4.95 4.43 5.89 12.22 3.24 18.12-2.34 4.81-7.34 7.32-11.17 10.77-11.05 9.61-22.06 19.29-33.11 28.9-2.54 2.16-5.19 4.39-8.46 5.31-7.49 2.07-16.46-0.02-21.23-6.43-3.92-4.92-4.06-12.57 0.16-17.36 3.88-4.52 8.94-7.84 13.01-12.19-5.46-0.24-10.91-0.17-16.36-0.16-291.67 0-583.34-0.01-875 0-4.85-0.07-9.74 0.32-14.55-0.42-7.64-1.2-13.11-9.12-12.4-16.66 0.36-7.3 6.75-13.58 13.95-14.23 4.32-0.38 8.67-0.1 13-0.14 291-0.01 582 0 873 0 6.07-0.02 12.15 0.06 18.23-0.08-3.67-4.28-8.53-7.32-12.22-11.57-4.14-4.83-4.66-12.51-0.67-17.59z" fill="#ffe66d"/>
</svg>
